<?xml version="1.0" encoding="UTF-8" standalone="no"?><!DOCTYPE svg PUBLIC "-//W3C//DTD SVG 1.1//EN" "http://www.w3.org/Graphics/SVG/1.1/DTD/svg11.dtd"><svg width="100%" height="100%" viewBox="0 0 780 223" version="1.1" xmlns="http://www.w3.org/2000/svg" xmlns:xlink="http://www.w3.org/1999/xlink" xml:space="preserve" xmlns:serif="http://www.serif.com/" style="fill-rule:evenodd;clip-rule:evenodd;stroke-linejoin:round;stroke-miterlimit:2;"><rect id="Logo" x="0" y="0" width="779.161" height="222.279" style="fill:none;"/><clipPath id="_clip1"><rect id="Logo1" serif:id="Logo" x="0" y="0" width="779.161" height="222.279"/></clipPath><g clip-path="url(#_clip1)"><g><text x="293.372px" y="164.894px" style="font-family:'Sansation-Bold', 'Sansation';font-weight:700;font-size:146.562px;fill:#01180e;">MANA</text><g><path d="M151.423,69.302c0,0 23.994,19.775 9.288,48.341c-14.647,28.446 -60.685,27.618 -82.063,2.484c-25.172,-29.591 -27.031,-95.547 41.45,-116.1c66.028,-19.819 108.16,39.959 108.16,39.959c0,0 -14.825,-8.703 -21.557,-0.15c-8.625,10.963 23.488,17.366 32.772,47.444c5.307,17.2 11.857,82.531 -64.759,119.947c-33.384,16.309 -102.95,20.344 -135.306,-28.95c0,0 24.34,7.15 26.2,-5.853c0.931,-6.522 -6.5,-9.081 -17.713,-13.5c-13.065,-5.147 -49.019,-21.135 -47.865,-65.669c1.131,-43.744 38.321,-78.281 63.325,-83.612c0,0 -42.782,51.696 -17.875,101.596c24.9,49.9 71.356,55.416 96.171,48.063c30.172,-8.934 62.31,-45.603 47.26,-87.794c-14.497,-40.647 -54.313,-48.606 -74.713,-33.859c-31.343,22.662 -17.737,60.353 6.75,64.744c22.103,3.968 37.619,-21.357 30.475,-37.091" style="fill:#14b8b8;fill-rule:nonzero;"/><path d="M45.477,115.239c24.906,49.9 71.353,55.416 96.175,48.063c30.172,-8.934 62.309,-45.6 47.259,-87.791c-3.365,-9.443 -8.087,-17.178 -13.562,-23.3c0,0 52.087,51.26 9.925,114.05c-34.616,51.55 -125.484,41.225 -144.256,18.303c-0.538,-0.762 -1.091,-1.496 -1.61,-2.284c0,0 24.341,7.147 26.197,-5.853c0.931,-6.525 -6.497,-9.081 -17.709,-13.503c-13.063,-5.144 -49.022,-21.135 -47.869,-65.669c1.134,-43.744 38.325,-78.281 63.328,-83.612c0,0 -42.781,51.696 -17.878,101.596Z" style="fill:url(#_Linear2);fill-rule:nonzero;"/><path d="M160.705,117.643c-14.64,28.446 -60.681,27.618 -82.062,2.481c-8.553,-10.05 -14.4,-24.306 -15.728,-39.547c25.468,42.272 70.868,24.625 70.868,24.625c14.791,-5.303 23.294,-23.441 17.641,-35.9c0,0 23.987,19.775 9.281,48.341Z" style="fill:url(#_Linear3);fill-rule:nonzero;"/></g></g></g><defs><linearGradient id="_Linear2" x1="0" y1="0" x2="1" y2="0" gradientUnits="userSpaceOnUse" gradientTransform="matrix(-201.744,0,0,201.744,201.745,108.532)"><stop offset="0" style="stop-color:#0f758a;stop-opacity:1"/><stop offset="1" style="stop-color:#14b8b8;stop-opacity:1"/></linearGradient><linearGradient id="_Linear3" x1="0" y1="0" x2="1" y2="0" gradientUnits="userSpaceOnUse" gradientTransform="matrix(-102.56,0,0,102.56,165.477,104.144)"><stop offset="0" style="stop-color:#0f758a;stop-opacity:1"/><stop offset="1" style="stop-color:#14b8b8;stop-opacity:1"/></linearGradient></defs></svg>